<?xml version="1.0" encoding="UTF-8"?>
<svg id="Layer_2" data-name="Layer 2" xmlns="http://www.w3.org/2000/svg" viewBox="0 0 112.11 133.33">
  <g id="Layer_2-2" data-name="Layer 2">
    <g>
      <path d="M16.15,100.15c-5.33-5.19-10.7-10.11-16.04-15.3C-.19,56.56.3,28.3,0,0c5.48,3.11,10.96,7.11,16.44,10.22.15,30.37-.44,59.56-.3,89.93Z"/>
      <path d="M22.37,38.5l-.11-15.56,34.15.09s17.93,1.81,26.81,16.26,5.26,28.44,5.26,28.44c0,0-1.93,7.56-7.26,13.78s-36.52,36.89-36.52,36.89l33.41.07-.22-19.52,34.22,34.3-103.96.07,44.07-44.74s-1.26-10.3-12.89-9.85-16.96,8.15-16.96,8.15l.07-16.96s7.33-4.81,19.19-5.93,21.04,8.74,22.96,11.33,8.37-10.44,8.15-16.22-2.67-17.41-16-20.74c0,0-34.37.19-34.37.13Z"/>
    </g>
  </g>
</svg>